<svg data-v-423bf9ae="" xmlns="http://www.w3.org/2000/svg" viewBox="0 0 539 90" class="iconLeft"><!----><!----><!----><g data-v-423bf9ae="" id="be4a7254-14b7-4c9a-86fd-db035b2e0b98" fill="#3E3E3E" transform="matrix(6.4516127709088735,0,0,6.4516127709088735,103.48386946966605,6.22580832741221)"><path d="M2.90 8.48L2.90 8.48L2.90 8.48Q2.91 8.72 3.02 8.86L3.02 8.86L3.02 8.86Q3.14 9.00 3.30 9.06L3.30 9.06L3.30 9.06Q3.46 9.13 3.66 9.13L3.66 9.13L3.66 9.13Q3.86 9.14 4.09 9.11L4.09 9.11L4.09 10.56L4.09 10.56Q3.89 10.60 3.75 10.62L3.75 10.62L3.75 10.62Q3.60 10.64 3.49 10.65L3.49 10.65L3.49 10.65Q3.36 10.67 3.28 10.65L3.28 10.65L3.28 10.65Q2.74 10.65 2.32 10.61L2.32 10.61L2.32 10.61Q1.90 10.57 1.61 10.34L1.61 10.34L1.61 10.34Q1.32 10.11 1.16 9.64L1.16 9.64L1.16 9.64Q1.01 9.17 1.01 8.30L1.01 8.30L1.01 1.55L2.90 1.55L2.90 8.48ZM9.31 10.65L9.31 10.65L9.31 10.65Q8.15 10.65 7.39 10.35L7.39 10.35L7.39 10.35Q6.64 10.04 6.18 9.52L6.18 9.52L6.18 9.52Q5.73 9.00 5.54 8.32L5.54 8.32L5.54 8.32Q5.36 7.64 5.36 6.89L5.36 6.89L5.36 6.89Q5.36 6.22 5.54 5.54L5.54 5.54L5.54 5.54Q5.73 4.87 6.13 4.33L6.13 4.33L6.13 4.33Q6.52 3.79 7.17 3.46L7.17 3.46L7.17 3.46Q7.81 3.12 8.74 3.12L8.74 3.12L8.74 3.12Q9.72 3.12 10.37 3.46L10.37 3.46L10.37 3.46Q11.02 3.79 11.41 4.33L11.41 4.33L11.41 4.33Q11.80 4.87 11.96 5.54L11.96 5.54L11.96 5.54Q12.12 6.22 12.12 6.89L12.12 6.89L12.12 7.52L7.17 7.52L7.17 7.52Q7.17 8.27 7.71 8.76L7.71 8.76L7.71 8.76Q8.25 9.25 9.18 9.25L9.18 9.25L9.18 9.25Q9.72 9.25 10.16 9.14L10.16 9.14L10.16 9.14Q10.61 9.03 10.93 8.89L10.93 8.89L10.93 8.89Q11.30 8.74 11.61 8.53L11.61 8.53L11.61 10.09L11.61 10.09Q11.61 10.11 11.42 10.19L11.42 10.19L11.42 10.19Q11.24 10.28 10.93 10.38L10.93 10.38L10.93 10.38Q10.63 10.49 10.21 10.57L10.21 10.57L10.21 10.57Q9.79 10.65 9.31 10.65ZM7.17 6.19L10.35 6.19L10.35 6.19Q10.35 5.95 10.28 5.66L10.28 5.66L10.28 5.66Q10.22 5.38 10.05 5.12L10.05 5.12L10.05 5.12Q9.87 4.87 9.55 4.70L9.55 4.70L9.55 4.70Q9.24 4.54 8.74 4.54L8.74 4.54L8.74 4.54Q8.30 4.54 8.00 4.70L8.00 4.70L8.00 4.70Q7.70 4.87 7.52 5.12L7.52 5.12L7.52 5.12Q7.34 5.38 7.25 5.66L7.25 5.66L7.25 5.66Q7.17 5.95 7.17 6.19L7.17 6.19ZM16.53 9.20L16.53 9.20L16.53 9.20Q16.94 9.20 17.29 9.13L17.29 9.13L17.29 9.13Q17.46 9.09 17.63 9.04L17.63 9.04L17.64 10.50L17.64 10.50Q17.39 10.54 17.11 10.58L17.11 10.58L17.11 10.58Q16.87 10.61 16.55 10.63L16.55 10.63L16.55 10.63Q16.23 10.65 15.86 10.65L15.86 10.65L15.86 10.65Q15.33 10.60 14.92 10.33L14.92 10.33L14.92 10.33Q14.57 10.09 14.29 9.63L14.29 9.63L14.29 9.63Q14 9.16 14 8.30L14 8.30L14 5.36L12.63 5.36L12.63 3.99L14 3.99L14 1.97L15.86 1.55L15.86 3.99L17.56 3.99L17.56 5.36L15.89 5.36L15.89 8.20L15.89 8.20Q15.89 8.39 15.94 8.56L15.94 8.56L15.94 8.56Q15.99 8.74 16.08 8.88L16.08 8.88L16.08 8.88Q16.17 9.02 16.29 9.11L16.29 9.11L16.29 9.11Q16.41 9.20 16.53 9.20ZM23.25 3.12L23.25 3.12L23.25 3.12Q23.90 3.12 24.36 3.34L24.36 3.34L24.36 3.34Q24.82 3.56 25.12 3.93L25.12 3.93L25.12 3.93Q25.42 4.31 25.56 4.83L25.56 4.83L25.56 4.83Q25.70 5.35 25.70 5.95L25.70 5.95L25.70 10.50L23.83 10.50L23.83 6.58L23.83 6.58Q23.83 5.54 23.55 5.05L23.55 5.05L23.55 5.05Q23.27 4.56 22.58 4.56L22.58 4.56L22.58 4.56Q21.76 4.56 21.36 5.25L21.36 5.25L21.36 5.25Q20.96 5.94 20.96 7.06L20.96 7.06L20.96 10.50L19.08 10.50L19.08 1.55L20.86 1.55L20.86 4.27L20.86 4.27Q21 4.12 21.17 3.91L21.17 3.91L21.17 3.91Q21.34 3.71 21.59 3.54L21.59 3.54L21.59 3.54Q21.85 3.36 22.25 3.24L22.25 3.24L22.25 3.24Q22.65 3.12 23.25 3.12ZM30.39 3.12L30.39 3.12L30.39 3.12Q30.86 3.12 31.39 3.27L31.39 3.27L31.39 3.27Q31.92 3.42 32.38 3.75L32.38 3.75L32.38 3.75Q32.84 4.07 33.14 4.59L33.14 4.59L33.14 4.59Q33.43 5.11 33.42 5.85L33.42 5.85L33.42 10.50L32.05 10.50L32.05 10.50Q32.05 10.50 32.00 10.33L32.00 10.33L32.00 10.33Q31.96 10.16 31.91 9.95L31.91 9.95L31.91 9.95Q31.86 9.74 31.82 9.58L31.82 9.58L31.82 9.58Q31.78 9.42 31.78 9.44L31.78 9.44L31.78 9.44Q31.58 9.79 31.26 10.05L31.26 10.05L31.26 10.05Q30.98 10.29 30.54 10.47L30.54 10.47L30.54 10.47Q30.10 10.65 29.46 10.65L29.46 10.65L29.46 10.65Q29.01 10.65 28.57 10.52L28.57 10.52L28.57 10.52Q28.14 10.39 27.80 10.13L27.80 10.13L27.80 10.13Q27.45 9.87 27.24 9.48L27.24 9.48L27.24 9.48Q27.02 9.09 27.01 8.57L27.01 8.57L27.01 8.57Q26.98 8.02 27.15 7.59L27.15 7.59L27.15 7.59Q27.33 7.17 27.66 6.86L27.66 6.86L27.66 6.86Q27.99 6.55 28.45 6.36L28.45 6.36L28.45 6.36Q28.91 6.17 29.46 6.10L29.46 6.10L29.46 6.10Q29.97 6.03 30.59 6.03L30.59 6.03L30.59 6.03Q31.21 6.03 31.70 6.06L31.70 6.06L31.70 5.84L31.70 5.84Q31.70 5.24 31.43 4.93L31.43 4.93L31.43 4.93Q31.16 4.63 30.77 4.54L30.77 4.54L30.77 4.54Q30.37 4.45 29.89 4.52L29.89 4.52L29.89 4.52Q29.41 4.59 28.98 4.72L28.98 4.72L28.98 4.72Q28.55 4.86 28.22 5.00L28.22 5.00L28.22 5.00Q27.89 5.15 27.80 5.22L27.80 5.22L27.80 3.81L27.80 3.81Q27.82 3.79 28.06 3.69L28.06 3.69L28.06 3.69Q28.29 3.58 28.66 3.46L28.66 3.46L28.66 3.46Q29.02 3.33 29.48 3.23L29.48 3.23L29.48 3.23Q29.93 3.12 30.39 3.12ZM31.29 8.68L31.29 8.68L31.29 8.68Q31.53 8.37 31.61 7.99L31.61 7.99L31.61 7.99Q31.68 7.62 31.68 7.20L31.68 7.20L30.87 7.20L30.87 7.20Q30.55 7.20 30.18 7.24L30.18 7.24L30.18 7.24Q29.82 7.28 29.51 7.41L29.51 7.41L29.51 7.41Q29.20 7.53 28.99 7.78L28.99 7.78L28.99 7.78Q28.78 8.02 28.78 8.44L28.78 8.44L28.78 8.44Q28.78 8.90 29.13 9.11L29.13 9.11L29.13 9.11Q29.47 9.32 29.97 9.32L29.97 9.32L29.97 9.32Q30.41 9.32 30.74 9.15L30.74 9.15L30.74 9.15Q31.07 8.97 31.29 8.68ZM37.10 8.48L37.10 8.48L37.10 8.48Q37.11 8.72 37.23 8.86L37.23 8.86L37.23 8.86Q37.34 9.00 37.50 9.06L37.50 9.06L37.50 9.06Q37.66 9.13 37.86 9.13L37.86 9.13L37.86 9.13Q38.07 9.14 38.29 9.11L38.29 9.11L38.29 10.56L38.29 10.56Q38.09 10.60 37.95 10.62L37.95 10.62L37.95 10.62Q37.80 10.64 37.69 10.65L37.69 10.65L37.69 10.65Q37.56 10.67 37.48 10.65L37.48 10.65L37.48 10.65Q36.95 10.65 36.53 10.61L36.53 10.61L36.53 10.61Q36.11 10.57 35.81 10.34L35.81 10.34L35.81 10.34Q35.52 10.11 35.36 9.64L35.36 9.64L35.36 9.64Q35.21 9.17 35.21 8.30L35.21 8.30L35.21 1.55L37.10 1.55L37.10 8.48ZM43.69 10.50L40.19 10.50L40.19 1.36L43.69 1.36L43.69 1.36Q44.72 1.36 45.53 1.71L45.53 1.71L45.53 1.71Q46.34 2.06 46.91 2.67L46.91 2.67L46.91 2.67Q47.47 3.28 47.78 4.11L47.78 4.11L47.78 4.11Q48.09 4.94 48.09 5.92L48.09 5.92L48.09 5.92Q48.09 6.92 47.78 7.75L47.78 7.75L47.78 7.75Q47.47 8.58 46.91 9.20L46.91 9.20L46.91 9.20Q46.34 9.81 45.53 10.16L45.53 10.16L45.53 10.16Q44.72 10.50 43.69 10.50L43.69 10.50ZM42.18 2.91L42.18 8.95L43.40 8.95L43.40 8.95Q44.03 8.95 44.51 8.71L44.51 8.71L44.51 8.71Q45.00 8.48 45.33 8.09L45.33 8.09L45.33 8.09Q45.65 7.69 45.83 7.13L45.83 7.13L45.83 7.13Q46.00 6.58 46.00 5.92L46.00 5.92L46.00 5.92Q46.00 5.28 45.83 4.72L45.83 4.72L45.83 4.72Q45.65 4.17 45.33 3.77L45.33 3.77L45.33 3.77Q45.00 3.37 44.51 3.14L44.51 3.14L44.51 3.14Q44.03 2.91 43.40 2.91L43.40 2.91L42.18 2.91ZM51.84 6.55L51.84 10.50L49.88 10.50L49.88 1.36L55.40 1.36L55.10 2.91L51.84 2.91L51.84 5.00L55.10 5.00L55.10 6.55L51.84 6.55ZM56.80 1.36L58.74 1.36L58.74 10.50L56.80 10.50L56.80 1.36ZM66.21 6.94L67.37 10.50L65.18 10.50L64.22 7.53L64.22 7.53Q64.16 7.36 64.05 7.21L64.05 7.21L64.05 7.21Q63.95 7.10 63.81 6.99L63.81 6.99L63.81 6.99Q63.66 6.89 63.45 6.89L63.45 6.89L62.62 6.89L62.62 10.50L60.68 10.50L60.68 1.36L63.28 1.36L63.28 1.36Q63.99 1.36 64.62 1.47L64.62 1.47L64.62 1.47Q65.25 1.58 65.73 1.88L65.73 1.88L65.73 1.88Q66.21 2.18 66.48 2.70L66.48 2.70L66.48 2.70Q66.75 3.22 66.75 4.03L66.75 4.03L66.75 4.03Q66.75 4.66 66.49 5.04L66.49 5.04L66.49 5.04Q66.22 5.42 65.90 5.63L65.90 5.63L65.90 5.63Q65.58 5.84 65.31 5.91L65.31 5.91L65.31 5.91Q65.04 5.98 65.04 5.98L65.04 5.98L65.04 5.98Q65.38 5.98 65.60 6.13L65.60 6.13L65.60 6.13Q65.83 6.29 65.96 6.47L65.96 6.47L65.96 6.47Q66.09 6.65 66.15 6.80L66.15 6.80L66.15 6.80Q66.21 6.94 66.21 6.94L66.21 6.94ZM62.62 5.26L63.11 5.26L63.11 5.26Q63.42 5.26 63.71 5.21L63.71 5.21L63.71 5.21Q64.01 5.15 64.24 5.01L64.24 5.01L64.24 5.01Q64.47 4.87 64.61 4.62L64.61 4.62L64.61 4.62Q64.75 4.37 64.75 3.99L64.75 3.99L64.75 3.99Q64.75 3.61 64.63 3.40L64.63 3.40L64.63 3.40Q64.51 3.19 64.29 3.09L64.29 3.09L64.29 3.09Q64.06 2.98 63.76 2.95L63.76 2.95L63.76 2.95Q63.46 2.93 63.11 2.93L63.11 2.93L62.62 2.93L62.62 5.26Z"></path></g><!----><g data-v-423bf9ae="" id="cd41475b-ef2c-4014-8601-6a2d4a2bb287" transform="matrix(2.8125,0,0,2.8125,0,0)" stroke="none" fill="#141516"><path d="M16 32c8.837 0 16-7.163 16-16S24.837 0 16 0 0 7.163 0 16s7.163 16 16 16zM14.817 6.421h2v8.886h8.887v2H14.817V6.421zm-5.959.437h2v14.283h14.283v2H8.858V6.858z"></path></g><!----></svg>